<?xml version="1.0" standalone="no"?>
<!DOCTYPE svg PUBLIC "-//W3C//DTD SVG 20010904//EN"
 "http://www.w3.org/TR/2001/REC-SVG-20010904/DTD/svg10.dtd">
<svg version="1.0" xmlns="http://www.w3.org/2000/svg"
 width="390.000000pt" height="390.000000pt" viewBox="0 0 390.000000 390.000000"
 preserveAspectRatio="xMidYMid meet">
<metadata>
Created by potrace 1.11, written by Peter Selinger 2001-2013
</metadata>
<g transform="translate(0.000000,390.000000) scale(0.100000,-0.100000)"
fill="#000000" stroke="none">
<path d="M490 3834 c-174 -27 -314 -133 -389 -295 -135 -288 38 -641 349 -713
75 -18 204 -14 271 8 215 68 360 264 361 486 1 123 -28 215 -96 308 -118 160
-302 236 -496 206z"/>
<path d="M1898 3839 c-85 -9 -127 -22 -204 -65 -156 -85 -252 -243 -260 -424
-6 -154 44 -282 155 -390 205 -201 519 -197 728 9 187 185 191 514 8 705 -117
123 -269 181 -427 165z"/>
<path d="M3265 3838 c-119 -16 -220 -65 -304 -149 -96 -96 -146 -213 -150
-350 -4 -136 43 -259 136 -359 279 -302 773 -175 877 225 44 166 -10 358 -134
483 -114 114 -272 170 -425 150z"/>
<path d="M1849 2454 c-61 -11 -86 -21 -175 -68 -63 -33 -179 -164 -197 -221
-3 -11 -13 -40 -22 -64 -41 -113 -26 -275 37 -394 161 -301 575 -365 810 -124
79 79 80 82 113 152 88 193 49 419 -98 569 -131 133 -289 184 -468 150z"/>
<path d="M3228 2454 c-194 -36 -353 -186 -403 -379 -54 -210 36 -438 218 -556
343 -222 795 23 795 431 0 324 -291 564 -610 504z"/>
<path d="M493 2449 c-166 -28 -303 -131 -378 -284 -67 -137 -69 -286 -5 -423
16 -34 30 -66 31 -70 1 -4 31 -36 68 -72 147 -145 336 -192 519 -129 70 24
137 63 182 106 19 18 38 33 43 33 4 0 7 5 7 10 0 11 39 70 52 80 4 3 19 41 33
85 45 134 37 264 -25 386 -16 32 -26 60 -22 65 4 4 2 5 -3 1 -6 -3 -21 10 -35
30 -33 49 -129 120 -200 149 -33 13 -90 28 -127 34 -76 11 -69 11 -140 -1z"/>
<path d="M500 1084 c-270 -47 -455 -269 -444 -531 15 -358 376 -592 708 -457
56 22 155 89 184 123 43 52 95 144 113 200 99 317 -131 648 -464 666 -40 2
-83 1 -97 -1z"/>
<path d="M3213 1075 c-145 -31 -289 -145 -351 -277 -185 -390 151 -817 573
-728 297 62 474 377 375 670 -82 243 -343 389 -597 335z"/>
<path d="M1850 1069 c-69 -13 -205 -85 -251 -132 -23 -23 -58 -67 -78 -97 -20
-30 -38 -57 -41 -60 -3 -3 -6 -12 -7 -20 -2 -8 -11 -53 -21 -99 -27 -122 -7
-228 63 -345 18 -31 31 -56 29 -56 -13 0 116 -104 161 -130 160 -91 383 -78
530 30 29 22 56 44 60 50 3 6 11 8 16 5 5 -4 9 -2 9 3 0 5 20 39 45 76 78 117
105 266 72 401 -61 250 -332 423 -587 374z"/>
</g>
</svg>
