<?xml version="1.0" standalone="no"?>
<!DOCTYPE svg PUBLIC "-//W3C//DTD SVG 20010904//EN"
 "http://www.w3.org/TR/2001/REC-SVG-20010904/DTD/svg10.dtd">
<svg version="1.0" xmlns="http://www.w3.org/2000/svg"
 width="390.000000pt" height="390.000000pt" viewBox="0 0 390.000000 390.000000"
 preserveAspectRatio="xMidYMid meet">
<metadata>
Created by potrace 1.11, written by Peter Selinger 2001-2013
</metadata>
<g transform="translate(0.000000,390.000000) scale(0.100000,-0.100000)"
fill="#000000" stroke="none">
<path d="M512 3839 c-88 -11 -151 -33 -219 -79 -74 -50 -81 -56 -125 -110
-204 -254 -121 -638 169 -784 114 -57 263 -69 384 -32 269 83 423 373 341 643
-58 190 -233 339 -422 359 -25 3 -49 6 -55 8 -5 1 -39 -1 -73 -5z"/>
<path d="M1899 3838 c-258 -24 -447 -220 -466 -483 -10 -148 41 -278 152 -390
110 -111 230 -157 385 -151 377 17 604 412 433 753 -31 62 -121 160 -182 198
-93 58 -208 84 -322 73z"/>
<path d="M3241 3834 c-248 -42 -431 -257 -431 -507 0 -221 140 -417 348 -489
92 -31 239 -31 331 1 209 73 339 247 347 466 6 156 -41 277 -147 384 -120 120
-283 173 -448 145z"/>
<path d="M1849 2454 c-239 -45 -417 -259 -417 -504 0 -294 243 -527 537 -514
85 4 138 17 206 51 180 92 285 261 285 460 2 325 -290 568 -611 507z"/>
<path d="M3243 2459 c-201 -32 -366 -183 -418 -384 -31 -119 -7 -289 56 -392
87 -142 253 -241 414 -247 151 -6 285 44 387 145 101 100 145 196 155 334 22
328 -269 595 -594 544z"/>
<path d="M458 2448 c-7 -3 -35 -14 -61 -23 -73 -26 -178 -100 -217 -154 -19
-27 -39 -46 -45 -43 -5 3 -7 2 -3 -2 3 -4 -7 -37 -24 -73 -42 -88 -56 -192
-39 -281 7 -37 13 -75 14 -84 1 -10 4 -18 7 -18 3 0 15 -19 25 -42 10 -24 17
-43 16 -43 -2 0 13 -18 32 -39 20 -22 34 -43 31 -48 -3 -5 -1 -7 4 -6 5 2 25
-11 45 -29 44 -40 153 -98 207 -109 54 -12 154 -15 205 -5 56 10 196 71 221
95 6 6 26 25 45 42 60 54 105 131 144 249 14 40 16 131 5 197 -7 37 -11 71
-10 74 1 4 -2 10 -7 13 -9 7 -51 93 -49 102 2 11 -165 169 -179 169 -3 0 -28
11 -55 24 -81 39 -262 59 -312 34z"/>
<path d="M490 1083 c-45 -7 -124 -35 -174 -62 -61 -32 -155 -124 -191 -186
-93 -157 -92 -366 0 -523 147 -251 478 -331 721 -174 240 155 310 468 159 707
-71 111 -186 197 -305 227 -40 10 -172 17 -210 11z"/>
<path d="M1925 1078 c-38 -4 -81 -9 -95 -11 -33 -5 -113 -41 -150 -67 -17 -12
-30 -19 -30 -16 0 3 -26 -21 -59 -54 -46 -48 -121 -160 -126 -190 -1 -3 -7
-31 -14 -63 -15 -70 -17 -116 -7 -179 4 -26 7 -50 8 -53 1 -17 49 -117 72
-153 34 -50 92 -109 133 -135 108 -69 241 -105 338 -91 28 4 57 8 65 9 8 2 29
8 47 15 18 6 34 10 35 9 2 -2 32 17 67 41 35 25 72 49 82 55 11 5 19 14 19 19
0 5 11 19 24 31 13 12 42 59 65 106 62 126 71 244 32 380 -20 67 -133 229
-160 229 -6 0 -14 6 -18 13 -18 27 -142 86 -198 94 -16 3 -36 8 -45 12 -8 4
-46 4 -85 -1z"/>
<path d="M3206 1074 c-182 -43 -344 -204 -385 -384 -15 -65 -13 -177 4 -244
49 -187 198 -333 383 -376 53 -12 165 -15 210 -6 266 57 442 291 418 555 -11
128 -59 228 -155 321 -126 123 -304 173 -475 134z"/>
</g>
</svg>
